<svg version="1.1" xmlns="http://www.w3.org/2000/svg" xmlns:xlink="http://www.w3.org/1999/xlink" preserveAspectRatio="xMidYMid meet" viewBox="182.22133333333335 288.80266666666665 56.84266666666667 64.3946666666667" width="52.84" height="60.39"><defs><path d="M205.87 312.45C201.7 312.45 198.31 315.83 198.31 320C198.31 324.17 201.7 327.55 205.87 327.55C210.04 327.55 213.42 324.17 213.42 320C213.42 315.83 210.04 312.45 205.87 312.45Z" id="a30MJj4HxH"></path><path d="M205.87 335.09C197.53 335.09 190.77 328.34 190.77 320C190.77 311.66 197.53 304.91 205.87 304.91C205.87 304.15 205.87 298.11 205.87 297.35C193.36 297.35 183.22 307.49 183.22 320C183.22 332.51 193.36 342.65 205.87 342.65C205.87 341.13 205.87 336.6 205.87 335.09Z" id="c18vqJzMKf"></path><path d="M205.87 297.35C218.37 297.35 228.51 307.49 228.51 320C228.51 332.51 218.37 342.65 205.87 342.65C205.87 343.4 205.87 349.44 205.87 350.2C222.54 350.2 236.06 336.68 236.06 320C236.06 303.32 222.54 289.8 205.87 289.8C205.87 291.31 205.87 296.6 205.87 297.35Z" id="a3bqcOS5P5"></path></defs><g><g><use xlink:href="#a30MJj4HxH" opacity="1" fill="#d6001c" fill-opacity="1"></use><g><use xlink:href="#a30MJj4HxH" opacity="1" fill-opacity="0" stroke="#000000" stroke-width="1" stroke-opacity="0"></use></g></g><g><use xlink:href="#c18vqJzMKf" opacity="1" fill="#ff9800" fill-opacity="1"></use><g><use xlink:href="#c18vqJzMKf" opacity="1" fill-opacity="0" stroke="#000000" stroke-width="1" stroke-opacity="0"></use></g></g><g><use xlink:href="#a3bqcOS5P5" opacity="1" fill="#ffffff" fill-opacity="1"></use><g><use xlink:href="#a3bqcOS5P5" opacity="1" fill-opacity="0" stroke="#000000" stroke-width="1" stroke-opacity="0"></use></g></g></g></svg>