<svg xmlns="http://www.w3.org/2000/svg" viewBox="0 0 29.98 42.64">
    <path
        d="M28.11,10.18,24.44,4.52,19.3,2.22l.09-.6-1.89-.2-.25-.11V1.4l-2.58-.27V.85l-.57.22L11.9.85l.21,1L8.38,3.3,1.8,9.72,1.49,18.9,15,40.93l6-9,5.36-8.72,2.29-6.12ZM17.71,20.89l-5.81-.61L8.84,15.84,10.52,10,14,8.72l2.35.39,3.06,1.53,1.53,6.12Z"
        style="fill:#d63f3f" />
    <path
        d="M15,0A15,15,0,0,0,2.24,22.87l11.9,19.18a1.23,1.23,0,0,0,1.06.59h0A1.25,1.25,0,0,0,16.27,42l11.6-19.36A15,15,0,0,0,15,0ZM25.72,21.39,15.18,39,4.36,21.56a12.5,12.5,0,1,1,21.36-.17Z"
        style="fill:#83858f" />
    <path d="M15,7.5A7.5,7.5,0,1,0,22.49,15,7.5,7.5,0,0,0,15,7.5ZM15,20a5,5,0,1,1,5-5A5,5,0,0,1,15,20Z"
        style="fill:#83858f" />
</svg>