<svg xmlns="http://www.w3.org/2000/svg" viewBox="0 0 38.78 38.78">
    <polygon
        points="4.29 3.5 12.4 10.69 10.56 15.44 22.65 27.83 27.09 26.76 35.04 34.41 28.77 37.92 20.51 35.94 2.61 17.58 0.62 9.93 4.29 3.5"
        style="fill:#d63f3f" />
    <path
        d="M37.79,28.61,33,23.78a3.43,3.43,0,0,0-4.82,0L26,26a2.6,2.6,0,0,1-3.65,0l-9.5-9.51a2.58,2.58,0,0,1,0-3.65L15,10.63A3.42,3.42,0,0,0,15,5.8L10.17,1A3.42,3.42,0,0,0,5.35,1C4.36,2,4,2.29,3.6,2.74a12.3,12.3,0,0,0,0,17.38L18.65,35.18a12.27,12.27,0,0,0,17.38,0l1.76-1.75A3.43,3.43,0,0,0,37.79,28.61Zm-6.43-3.22,4.82,4.82a1.15,1.15,0,0,1,0,1.61l-.81.8L29,26.2l.8-.81A1.15,1.15,0,0,1,31.36,25.39ZM8.56,2.61l4.82,4.8a1.13,1.13,0,0,1,0,1.61l-.8.8L6.16,3.4,7,2.6A1.13,1.13,0,0,1,8.56,2.61Zm11.69,31L5.2,18.51A10,10,0,0,1,4.58,5L11,11.44a4.86,4.86,0,0,0,.21,6.64l9.5,9.5h0a4.84,4.84,0,0,0,6.64.21l6.41,6.41A10,10,0,0,1,20.25,33.57Z"
        style="fill:#83858f" />
</svg>